<?xml version="1.0" standalone="no"?>
<!DOCTYPE svg PUBLIC "-//W3C//DTD SVG 20010904//EN"
 "http://www.w3.org/TR/2001/REC-SVG-20010904/DTD/svg10.dtd">
<svg version="1.0" xmlns="http://www.w3.org/2000/svg"
 width="2048.000000pt" height="2048.000000pt" viewBox="0 0 2048.000000 2048.000000"
 preserveAspectRatio="xMidYMid meet">
<metadata>
Created by potrace 1.11, written by Peter Selinger 2001-2013
</metadata>
<g transform="translate(0.000000,2048.000000) scale(0.100000,-0.100000)"
fill="#000000" stroke="none">
<path d="M9815 15619 c-167 -10 -359 -34 -412 -52 -21 -7 -38 -19 -38 -27 0
-8 31 -31 69 -52 37 -21 112 -66 165 -101 53 -35 125 -81 161 -102 195 -115
1115 -734 1410 -948 397 -289 572 -436 882 -744 l227 -226 -1 -56 c-2 -71 17
-109 92 -181 39 -38 96 -75 179 -119 108 -57 171 -105 171 -131 0 -4 -16 -27
-35 -50 -19 -23 -35 -49 -35 -57 0 -54 86 -140 183 -183 98 -44 273 -65 310
-37 27 19 36 211 37 727 0 575 -17 730 -111 1024 -260 806 -991 1204 -2409
1311 -218 16 -608 18 -845 4z"/>
<path d="M8675 15421 c-431 -127 -795 -372 -1047 -706 -57 -76 -152 -255 -178
-338 -23 -72 21 -104 205 -151 156 -39 294 -98 677 -288 514 -254 681 -371
1133 -791 190 -177 283 -253 297 -239 10 10 16 91 27 412 7 192 11 232 28 271
54 121 216 177 483 166 156 -6 233 -24 310 -71 97 -60 90 -27 101 -487 5 -222
13 -458 19 -524 5 -66 10 -123 10 -127 0 -10 851 -9 947 0 40 4 75 11 79 15 4
4 -3 29 -16 56 -23 50 -23 69 1 128 12 31 11 35 -25 85 -21 29 -76 111 -123
181 -47 70 -95 134 -107 142 -11 8 -46 19 -76 26 -74 16 -148 90 -213 214 -25
50 -69 124 -97 165 -27 41 -50 82 -50 91 0 50 -182 249 -416 454 -83 73 -204
191 -270 262 -223 240 -329 339 -506 471 -292 218 -528 372 -721 469 -126 63
-189 83 -262 83 -46 0 -69 5 -86 19 -37 29 -59 31 -124 12z"/>
<path d="M7354 14045 c-11 -17 -18 -64 -25 -162 -10 -167 -29 -869 -29 -1115
l0 -176 133 -66 c135 -67 207 -116 207 -142 0 -23 -37 -48 -88 -60 -43 -10
-47 -13 -45 -39 3 -35 50 -108 133 -203 73 -83 140 -132 184 -132 52 -1 112
-35 180 -106 70 -72 80 -99 46 -129 -11 -10 -20 -25 -20 -33 0 -8 26 -56 59
-106 110 -171 186 -349 221 -516 12 -58 28 -116 35 -130 7 -14 24 -68 39 -120
14 -52 57 -194 95 -315 38 -121 72 -236 76 -255 4 -19 32 -89 61 -156 30 -66
54 -128 54 -137 0 -9 19 -44 43 -79 61 -90 121 -195 236 -416 109 -211 158
-285 202 -307 28 -15 29 -14 35 11 4 14 -1 94 -11 177 -22 186 -24 347 -6 402
20 61 57 103 130 149 122 78 122 78 446 87 160 4 291 8 293 8 10 4 -10 38 -88
149 -95 134 -223 377 -260 492 -35 111 -46 194 -31 243 22 72 24 113 7 186 -9
38 -16 90 -16 115 0 54 -12 64 -120 101 -136 46 -151 66 -120 161 26 77 20 90
-46 100 -93 14 -111 66 -52 157 29 45 33 60 32 112 -2 78 -30 239 -49 276 -9
16 -28 35 -44 44 -46 23 -67 62 -106 196 -20 68 -43 134 -51 146 -43 67 -498
401 -582 427 -14 5 -49 -5 -102 -28 -146 -64 -206 -61 -280 14 -59 58 -71 101
-46 169 30 85 28 91 -125 296 -32 44 -64 98 -70 120 -22 83 -27 88 -168 174
-22 13 -60 43 -84 66 -39 38 -51 43 -108 50 -115 13 -128 36 -73 125 44 71 42
110 -10 165 -39 41 -69 45 -92 10z"/>
<path d="M10735 12043 c-53 -7 -85 -24 -85 -46 0 -13 47 -68 131 -152 128
-128 158 -165 159 -195 1 -48 26 -95 86 -160 73 -80 89 -111 74 -141 -9 -16
-22 -19 -76 -19 -80 0 -86 -10 -45 -77 35 -57 38 -75 14 -94 -21 -18 -43 -71
-43 -107 0 -42 28 -61 130 -87 51 -13 109 -35 129 -49 86 -62 321 -368 357
-467 9 -24 16 -67 16 -96 1 -44 -6 -63 -46 -129 -49 -84 -57 -118 -28 -132 9
-5 69 -12 133 -15 144 -8 211 -30 264 -89 79 -87 113 -224 122 -493 9 -267
-14 -372 -86 -402 -63 -27 -504 -115 -621 -125 -49 -4 -50 -29 -4 -119 64
-128 250 -384 298 -411 30 -17 39 27 31 148 l-7 113 27 26 c16 14 35 25 45 25
31 0 69 -55 100 -145 38 -108 126 -266 220 -395 128 -174 135 -206 53 -263
-25 -18 -58 -42 -72 -54 l-26 -22 47 -89 c54 -101 72 -164 88 -307 15 -127 30
-160 120 -265 86 -99 100 -130 135 -287 44 -199 75 -305 100 -350 14 -23 25
-53 25 -66 0 -29 -37 -57 -74 -57 -88 0 -514 395 -628 581 -48 79 -97 196
-111 268 -14 70 -37 104 -177 261 -134 150 -149 175 -196 314 -50 154 -95 239
-191 368 -99 132 -242 298 -287 333 -28 22 -32 23 -40 8 -5 -10 -12 -139 -16
-288 -5 -184 -11 -279 -20 -297 -16 -34 -60 -52 -197 -78 -261 -50 -366 -89
-422 -157 -65 -79 -66 -88 -66 -603 0 -428 1 -468 18 -501 24 -49 52 -59 163
-59 57 0 108 -5 127 -14 57 -23 217 -213 217 -256 0 -10 -7 -34 -15 -54 -10
-23 -13 -50 -10 -70 5 -26 -1 -47 -29 -100 -30 -57 -36 -78 -36 -129 0 -77 26
-138 80 -187 l39 -36 -6 -87 c-7 -101 -9 -97 93 -173 107 -78 108 -116 5 -129
-66 -9 -90 -21 -97 -50 -9 -35 31 -139 109 -290 55 -106 67 -122 101 -139 37
-18 47 -19 133 -8 52 7 164 26 251 43 675 130 1222 387 1538 722 166 175 278
373 380 671 l44 128 0 1327 0 1328 -46 59 c-61 78 -87 123 -134 235 -56 130
-105 209 -196 314 -86 100 -129 181 -145 273 -16 87 5 126 86 167 33 17 61 38
63 47 2 9 -10 47 -27 85 -35 81 -72 196 -102 315 l-21 87 -67 6 c-161 15 -185
30 -344 212 -125 144 -212 266 -260 362 -40 80 -42 89 -42 171 0 78 3 91 28
128 15 23 27 50 27 59 0 10 -16 42 -35 70 -39 58 -44 92 -17 116 39 36 78 20
205 -81 40 -32 88 -64 106 -72 29 -12 35 -11 59 7 51 38 43 67 -45 153 -151
148 -306 204 -637 230 -120 9 -834 12 -901 3z"/>
<path d="M7300 10812 c0 -30 62 -143 87 -159 37 -25 34 2 -10 88 -41 82 -77
115 -77 71z"/>
<path d="M11199 10101 c-20 -16 -21 -21 -10 -34 28 -34 131 -47 131 -16 0 18
-58 69 -78 69 -11 0 -30 -8 -43 -19z"/>
<path d="M7316 9842 c-3 -26 -8 -654 -12 -1397 -6 -1386 1 -1911 30 -2080 109
-631 500 -1048 1206 -1284 304 -102 699 -178 1100 -211 183 -15 642 -23 659
-12 18 13 -16 74 -134 242 -151 214 -239 351 -340 525 -54 94 -109 187 -124
208 l-26 38 -160 2 c-156 2 -162 3 -225 33 -80 38 -128 78 -147 121 -12 29
-11 51 6 171 25 173 45 446 38 521 -8 93 -73 201 -222 366 -99 110 -149 174
-172 222 -9 20 -52 71 -96 114 l-80 78 32 55 c17 31 31 65 31 77 0 33 -65 106
-118 132 -79 39 -225 252 -299 438 -21 52 -48 110 -61 130 -12 20 -22 44 -22
53 0 37 -45 100 -158 219 -140 148 -206 239 -197 275 3 13 22 47 41 77 36 54
51 114 40 158 -3 14 -22 45 -42 68 -49 59 -62 93 -84 219 -36 212 -48 236
-145 293 -38 22 -115 70 -170 107 -151 101 -142 98 -149 42z"/>
<path d="M10244 8581 c-49 -22 -106 -78 -130 -129 -15 -30 -19 -63 -19 -177 0
-147 9 -190 45 -212 29 -18 142 -34 260 -36 95 -2 113 1 183 28 l77 30 0 66
c0 36 -3 141 -7 232 l-6 166 -107 25 c-130 32 -236 34 -296 7z"/>
</g>
</svg>
